<svg xmlns="http://www.w3.org/2000/svg" viewBox="0 0 640 260" font-family="system-ui, -apple-system, Segoe UI, sans-serif">
<rect x="0" y="0" width="640" height="260" fill="#fcfcfb" rx="10"/><text x="24" y="30" font-size="16" font-weight="700" fill="#0b0b0b">Overall Accuracy Across 5 Simulated Weeks</text><line x1="56" y1="214" x2="610" y2="214" stroke="#e1e0d9" stroke-width="1"/><text x="48" y="218" font-size="10" fill="#898781" text-anchor="end">0%</text><line x1="56" y1="174.5" x2="610" y2="174.5" stroke="#e1e0d9" stroke-width="1"/><text x="48" y="178.5" font-size="10" fill="#898781" text-anchor="end">25%</text><line x1="56" y1="135" x2="610" y2="135" stroke="#e1e0d9" stroke-width="1"/><text x="48" y="139" font-size="10" fill="#898781" text-anchor="end">50%</text><line x1="56" y1="95.5" x2="610" y2="95.5" stroke="#e1e0d9" stroke-width="1"/><text x="48" y="99.5" font-size="10" fill="#898781" text-anchor="end">75%</text><line x1="56" y1="56" x2="610" y2="56" stroke="#e1e0d9" stroke-width="1"/><text x="48" y="60" font-size="10" fill="#898781" text-anchor="end">100%</text><text x="56" y="246" font-size="11" fill="#898781" text-anchor="middle">Week 1</text><text x="194.5" y="246" font-size="11" fill="#898781" text-anchor="middle">Week 2</text><text x="333" y="246" font-size="11" fill="#898781" text-anchor="middle">Week 3</text><text x="471.5" y="246" font-size="11" fill="#898781" text-anchor="middle">Week 4</text><text x="610" y="246" font-size="11" fill="#898781" text-anchor="middle">Week 5</text><path d="M 56 127.1 L 194.5 103.4 L 333 87.6 L 471.5 79.70000000000002 L 610 71.79999999999998" fill="none" stroke="#2a78d6" stroke-width="2.5"/><circle cx="56" cy="127.1" r="5" fill="#2a78d6"/><circle cx="56" cy="127.1" r="8" fill="none" stroke="#2a78d6" stroke-width="1" opacity="0.3"/><text x="56" y="113.1" font-size="12" font-weight="700" fill="#0b0b0b" text-anchor="middle">55%</text><circle cx="194.5" cy="103.4" r="5" fill="#2a78d6"/><circle cx="194.5" cy="103.4" r="8" fill="none" stroke="#2a78d6" stroke-width="1" opacity="0.3"/><text x="194.5" y="89.4" font-size="12" font-weight="700" fill="#0b0b0b" text-anchor="middle">70%</text><circle cx="333" cy="87.6" r="5" fill="#2a78d6"/><circle cx="333" cy="87.6" r="8" fill="none" stroke="#2a78d6" stroke-width="1" opacity="0.3"/><text x="333" y="73.6" font-size="12" font-weight="700" fill="#0b0b0b" text-anchor="middle">80%</text><circle cx="471.5" cy="79.70000000000002" r="5" fill="#2a78d6"/><circle cx="471.5" cy="79.70000000000002" r="8" fill="none" stroke="#2a78d6" stroke-width="1" opacity="0.3"/><text x="471.5" y="65.70000000000002" font-size="12" font-weight="700" fill="#0b0b0b" text-anchor="middle">85%</text><circle cx="610" cy="71.79999999999998" r="5" fill="#2a78d6"/><circle cx="610" cy="71.79999999999998" r="8" fill="none" stroke="#2a78d6" stroke-width="1" opacity="0.3"/><text x="610" y="57.79999999999998" font-size="12" font-weight="700" fill="#0b0b0b" text-anchor="middle">90%</text></svg>